<svg id="Layer_1" data-name="Layer 1" xmlns="http://www.w3.org/2000/svg" viewBox="0 0 612.44 360"><defs><style>.cls-1{fill:#1b9b05;}.cls-2{fill:#f1ff8d;}.cls-3{fill:#94ce28;}.cls-4{fill:#d0eb51;}.cls-5{fill:#56ba22;}.cls-6{fill:#d13d3d;}.cls-7{fill:#127045;}.cls-8{fill:#fffffd;}.cls-9{fill:#ffaeae;}.cls-10{fill:#fff;}.cls-11{fill:#6b3429;}</style></defs><title>problemas-de-saude-ldc</title><path class="cls-1" d="M316.23,344a16,16,0,0,1-16,16H74.76a16,16,0,0,1-16-16V63.26a16,16,0,0,1,16-16H300.25a16,16,0,0,1,16,16Z" transform="translate(-58.78)"/><polygon class="cls-2" points="22.98 65.73 22.98 313.9 22.98 334.57 128.72 334.57 234.46 334.57 234.46 65.73 22.98 65.73"/><path class="cls-3" d="M258.48,156.48a7.41,7.41,0,0,1-7.41,7.41H123.94a7.41,7.41,0,0,1-7.41-7.41h0a7.41,7.41,0,0,1,7.41-7.41H251.07a7.41,7.41,0,0,1,7.41,7.41Z" transform="translate(-58.78)"/><path class="cls-3" d="M258.48,185a7.41,7.41,0,0,1-7.41,7.41H123.94a7.41,7.41,0,0,1-7.41-7.41h0a7.41,7.41,0,0,1,7.41-7.41H251.07a7.41,7.41,0,0,1,7.41,7.41Z" transform="translate(-58.78)"/><path class="cls-4" d="M195.48,128a7.41,7.41,0,0,1-7.41,7.41H123.94a7.41,7.41,0,0,1-7.41-7.41h0a7.42,7.42,0,0,1,7.41-7.42h64.13a7.42,7.42,0,0,1,7.41,7.42Z" transform="translate(-58.78)"/><path class="cls-3" d="M258.48,213.47a7.41,7.41,0,0,1-7.41,7.41H123.94a7.41,7.41,0,0,1-7.41-7.41h0a7.42,7.42,0,0,1,7.41-7.42H251.07a7.42,7.42,0,0,1,7.41,7.42Z" transform="translate(-58.78)"/><path class="cls-3" d="M184.83,270.45a7.42,7.42,0,0,1-7.41,7.42H123.94a7.42,7.42,0,0,1-7.41-7.42h0a7.41,7.41,0,0,1,7.41-7.41h53.48a7.41,7.41,0,0,1,7.41,7.41Z" transform="translate(-58.78)"/><path class="cls-3" d="M258.48,242a7.41,7.41,0,0,1-7.41,7.41H123.94a7.41,7.41,0,0,1-7.41-7.41h0a7.41,7.41,0,0,1,7.41-7.41H251.07a7.41,7.41,0,0,1,7.41,7.41Z" transform="translate(-58.78)"/><path class="cls-3" d="M233.8,34h-8V38.3a38.3,38.3,0,0,0-76.6,0V34h-8a13.46,13.46,0,0,0-13.46,13.45V82.15h119.5V47.46A13.45,13.45,0,0,0,233.8,34ZM187.5,17.33A10.49,10.49,0,1,1,177,27.82,10.49,10.49,0,0,1,187.5,17.33Z" transform="translate(-58.78)"/><path class="cls-5" d="M230.58,60.81a7.31,7.31,0,0,1-7.31,7.31H151.74a7.31,7.31,0,0,1-7.31-7.31V59.58a7.32,7.32,0,0,1,7.31-7.31h71.53a7.32,7.32,0,0,1,7.31,7.31Z" transform="translate(-58.78)"/><path class="cls-6" d="M228.46,141.45a7.13,7.13,0,0,1-5.06-2.1L211.54,127.5a7.17,7.17,0,0,1,10.15-10.14l6.77,6.78,22.35-22.35A7.17,7.17,0,0,1,261,111.93l-27.42,27.42a7.18,7.18,0,0,1-5.08,2.1" transform="translate(-58.78)"/><path class="cls-3" d="M573.79,104.13A25.77,25.77,0,0,0,548,78.36a12.08,12.08,0,0,1-12.08-12.08H508.09A12.08,12.08,0,0,1,496,78.36a25.77,25.77,0,0,0-25.77,25.77c0,.6.05,1.19.09,1.78a17.53,17.53,0,0,0-.09,1.78V342.38A17.62,17.62,0,0,0,487.87,360h68.29a17.62,17.62,0,0,0,17.63-17.62V107.69a17.53,17.53,0,0,0-.09-1.78C573.74,105.32,573.79,104.73,573.79,104.13Z" transform="translate(-58.78)"/><path class="cls-7" d="M544.15,59.63a6.65,6.65,0,0,1-6.65,6.65h-31a6.64,6.64,0,0,1-6.64-6.65V44.84a6.64,6.64,0,0,1,6.64-6.64h31a6.64,6.64,0,0,1,6.65,6.64Z" transform="translate(-58.78)"/><circle class="cls-8" cx="463.23" cy="173.52" r="40.78"/><polygon class="cls-6" points="487.28 162.58 474.17 162.58 474.17 149.47 452.29 149.47 452.29 162.58 439.18 162.58 439.18 184.47 452.29 184.47 452.29 197.57 474.17 197.57 474.17 184.47 487.28 184.47 487.28 162.58"/><path class="cls-9" d="M505.44,341.53A18.47,18.47,0,0,1,487,360H414.62a18.47,18.47,0,0,1-18.47-18.47V179.68a18.47,18.47,0,0,1,18.47-18.47H487a18.47,18.47,0,0,1,18.47,18.47V341.53Z" transform="translate(-58.78)"/><circle class="cls-10" cx="368.92" cy="193.21" r="11.53"/><circle class="cls-10" cx="368.92" cy="241.47" r="11.53"/><circle class="cls-10" cx="368.92" cy="289.74" r="11.53"/><circle class="cls-10" cx="368.92" cy="338.01" r="11.53"/><circle class="cls-10" cx="415.1" cy="193.21" r="11.53"/><circle class="cls-10" cx="415.1" cy="241.47" r="11.53"/><circle class="cls-10" cx="415.1" cy="289.74" r="11.53"/><circle class="cls-10" cx="415.1" cy="338.01" r="11.53"/><path class="cls-5" d="M671.22,170.26A29.23,29.23,0,0,0,642,141a13.71,13.71,0,0,1-13.71-13.71H596.7A13.71,13.71,0,0,1,583,141a29.23,29.23,0,0,0-29.23,29.23c0,.68.06,1.35.1,2s-.1,1.33-.1,2V340a20,20,0,0,0,20,20h77.48a20,20,0,0,0,20-20V174.3c0-.69,0-1.36-.1-2S671.22,170.94,671.22,170.26Z" transform="translate(-58.78)"/><path class="cls-7" d="M637.59,119.78a7.53,7.53,0,0,1-7.53,7.54H594.92a7.54,7.54,0,0,1-7.54-7.54V103a7.55,7.55,0,0,1,7.54-7.54h35.14a7.54,7.54,0,0,1,7.53,7.54Z" transform="translate(-58.78)"/><path class="cls-8" d="M612.49,179a46.26,46.26,0,1,0,46.26,46.26A46.25,46.25,0,0,0,612.49,179Z" transform="translate(-58.78)"/><polygon class="cls-6" points="580.98 212.82 566.11 212.82 566.11 197.95 541.3 197.95 541.3 212.82 526.42 212.82 526.42 237.64 541.3 237.64 541.3 252.51 566.11 252.51 566.11 237.64 580.98 237.64 580.98 212.82"/><path class="cls-4" d="M397.64,281.61a18.85,18.85,0,0,1-18.85,18.85H305a18.84,18.84,0,0,1-18.84-18.85V169.88A18.83,18.83,0,0,1,305,151h73.81a18.84,18.84,0,0,1,18.85,18.84Z" transform="translate(-58.78)"/><path class="cls-11" d="M304.84,214.73a12.67,12.67,0,0,0,25.34,0V196.32H304.84v18.41Z" transform="translate(-58.78)"/><path class="cls-6" d="M304.84,177.92v18.41h25.34V177.92a12.67,12.67,0,0,0-25.34,0Z" transform="translate(-58.78)"/><path class="cls-11" d="M353.27,214.73a12.67,12.67,0,1,0,25.34,0V196.32H353.27Z" transform="translate(-58.78)"/><path class="cls-6" d="M353.27,177.92v18.41h25.34V177.92a12.67,12.67,0,0,0-25.34,0Z" transform="translate(-58.78)"/><path class="cls-10" d="M408.44,352.73a7.26,7.26,0,0,1-7.26,7.27H276a7.27,7.27,0,0,1-7.27-7.27V221.15a7.27,7.27,0,0,1,7.27-7.27h125.2a7.26,7.26,0,0,1,7.26,7.27V352.73Z" transform="translate(-58.78)"/><rect class="cls-3" x="209.93" y="247.9" width="139.73" height="77.11"/><path class="cls-7" d="M397.33,275.09a7.18,7.18,0,0,1-7.17,7.18H293.61a7.18,7.18,0,0,1-7.17-7.18h0a7.17,7.17,0,0,1,7.17-7.17h96.55a7.17,7.17,0,0,1,7.17,7.17Z" transform="translate(-58.78)"/><path class="cls-5" d="M397.33,301.42a7.17,7.17,0,0,1-7.17,7.17H293.61a7.17,7.17,0,0,1-7.17-7.17h0a7.17,7.17,0,0,1,7.17-7.18h96.55a7.17,7.17,0,0,1,7.17,7.18Z" transform="translate(-58.78)"/><path class="cls-1" d="M556.55,276.71a7,7,0,0,0-7-7H441.26a7,7,0,0,0-7,7V353a7,7,0,0,0,7,7H549.59a7,7,0,0,0,7-7Z" transform="translate(-58.78)"/><path class="cls-7" d="M556.55,249.86a7,7,0,0,0-7-7H441.26a7,7,0,0,0-7,7v12.91a7,7,0,0,0,7,7H549.59a7,7,0,0,0,7-7Z" transform="translate(-58.78)"/></svg>