<?xml version="1.0" encoding="utf-8"?>
<!-- Generator: Adobe Illustrator 17.0.0, SVG Export Plug-In . SVG Version: 6.00 Build 0)  -->
<!DOCTYPE svg PUBLIC "-//W3C//DTD SVG 1.1//EN" "http://www.w3.org/Graphics/SVG/1.1/DTD/svg11.dtd">
<svg version="1.1" id="Layer_1" xmlns="http://www.w3.org/2000/svg" xmlns:xlink="http://www.w3.org/1999/xlink" x="0px" y="0px"
	 width="730px" height="360px" viewBox="0 0 730 360" enable-background="new 0 0 730 360" xml:space="preserve">
<g>
	<g>
		<g>
			<g>
				<path fill="#1B9B05" d="M316.225,344.021c0,8.825-7.155,15.979-15.979,15.979H74.762c-8.824,0-15.979-7.154-15.979-15.979
					V63.264c0-8.825,7.155-15.979,15.979-15.979h225.484c8.824,0,15.979,7.154,15.979,15.979V344.021z"/>
				<g>
					<polygon fill="#F1FF8D" points="81.767,65.732 81.767,313.902 81.767,334.568 187.502,334.568 293.24,334.568 293.24,65.732 
											"/>
				</g>
				<g>
					<g>
						<path fill="#94CE28" d="M258.479,156.48c0,4.093-3.319,7.412-7.411,7.412H123.941c-4.095,0-7.412-3.319-7.412-7.412l0,0
							c0-4.094,3.317-7.413,7.412-7.413h127.127C255.16,149.066,258.479,152.386,258.479,156.48L258.479,156.48z"/>
						<path fill="#94CE28" d="M258.479,184.974c0,4.092-3.319,7.411-7.411,7.411H123.941c-4.095,0-7.412-3.32-7.412-7.411l0,0
							c0-4.096,3.317-7.415,7.412-7.415h127.127C255.16,177.56,258.479,180.878,258.479,184.974L258.479,184.974z"/>
						<path fill="#D0EB51" d="M195.479,127.986c0,4.092-3.319,7.412-7.411,7.412h-64.127c-4.095,0-7.412-3.32-7.412-7.412l0,0
							c0-4.096,3.317-7.415,7.412-7.415h64.127C192.16,120.572,195.479,123.89,195.479,127.986L195.479,127.986z"/>
						<path fill="#94CE28" d="M258.479,213.466c0,4.095-3.319,7.411-7.411,7.411H123.941c-4.095,0-7.412-3.317-7.412-7.411l0,0
							c0-4.095,3.317-7.414,7.412-7.414h127.127C255.16,206.052,258.479,209.371,258.479,213.466L258.479,213.466z"/>
						<path fill="#94CE28" d="M184.831,270.453c0,4.094-3.317,7.413-7.409,7.413h-53.481c-4.095,0-7.412-3.32-7.412-7.413l0,0
							c0-4.094,3.317-7.413,7.412-7.413h53.481C181.514,263.04,184.831,266.359,184.831,270.453L184.831,270.453z"/>
						<path fill="#94CE28" d="M258.479,241.959c0,4.094-3.319,7.413-7.411,7.413H123.941c-4.095,0-7.412-3.319-7.412-7.413l0,0
							c0-4.094,3.317-7.413,7.412-7.413h127.127C255.16,234.546,258.479,237.866,258.479,241.959L258.479,241.959z"/>
					</g>
				</g>
			</g>
		</g>
		<path fill="#94CE28" d="M233.801,34.008h-7.998c0,0.982,0,2.363,0,4.291c0-11.19-4.801-21.257-12.453-28.26
			C206.538,3.806,197.466,0,187.504,0c-9.963,0-19.034,3.806-25.846,10.04c-7.652,7.002-12.453,17.07-12.453,28.26
			c0-1.928,0-3.31,0-4.291h-7.998c-7.429,0-13.452,6.022-13.452,13.452v5.647V82.15h119.498V53.108v-5.647
			C247.253,40.031,241.231,34.008,233.801,34.008z M187.504,17.333c5.79,0,10.484,4.694,10.484,10.483
			c0,5.789-4.694,10.483-10.484,10.483c-5.791,0-10.484-4.694-10.484-10.483C177.02,22.027,181.713,17.333,187.504,17.333z"/>
		<path fill="#56BA22" d="M230.576,60.813c0,4.037-3.273,7.31-7.31,7.31h-71.524c-4.037,0-7.31-3.273-7.31-7.31v-1.23
			c0-4.037,3.273-7.31,7.31-7.31h71.524c4.037,0,7.31,3.273,7.31,7.31V60.813z"/>
		<g>
			<path fill="#D13D3D" d="M228.462,141.454c-1.832,0-3.666-0.704-5.067-2.1l-11.851-11.852c-2.794-2.798-2.794-7.338,0-10.139
				c2.801-2.799,7.342-2.799,10.144,0l6.774,6.774l22.35-22.347c2.805-2.802,7.34-2.802,10.143,0c2.799,2.804,2.799,7.342,0,10.14
				l-27.42,27.424C232.133,140.749,230.302,141.454,228.462,141.454"/>
		</g>
	</g>
	<g>
		<g>
			<g>
				<path fill="#94CE28" d="M573.788,104.131c0-14.231-11.537-25.767-25.768-25.767c-6.672,0-12.083-5.409-12.083-12.083h-27.843
					c0,6.674-5.411,12.083-12.084,12.083c-14.232,0-25.767,11.537-25.767,25.767c0,0.601,0.049,1.189,0.09,1.78
					c-0.058,0.585-0.09,1.178-0.09,1.779v234.686c0,9.734,7.891,17.624,17.624,17.624h68.296c9.733,0,17.624-7.891,17.624-17.624
					V107.69c0-0.601-0.032-1.194-0.09-1.779C573.739,105.32,573.788,104.732,573.788,104.131z"/>
				<path fill="#127045" d="M544.146,59.634c0,3.673-2.974,6.646-6.643,6.646h-30.974c-3.669,0-6.643-2.973-6.643-6.646V44.842
					c0-3.672,2.974-6.646,6.643-6.646h30.974c3.669,0,6.643,2.974,6.643,6.646V59.634z"/>
				<circle fill="#FFFFFD" cx="522.015" cy="173.523" r="40.781"/>
				<polygon fill="#D13D3D" points="546.063,162.582 532.955,162.582 532.955,149.475 511.077,149.475 511.077,162.582 
					497.967,162.582 497.967,184.466 511.077,184.466 511.077,197.571 532.955,197.571 532.955,184.466 546.063,184.466 				"/>
			</g>
			<g>
				<path fill="#FFAEAE" d="M505.438,341.528c0,10.202-8.271,18.472-18.472,18.472H414.62c-10.201,0-18.472-8.27-18.472-18.472
					V179.685c0-10.202,8.271-18.472,18.472-18.472h72.347c10.201,0,18.472,8.27,18.472,18.472V341.528z"/>
				<g>
					<circle fill="#FFFFFF" cx="427.704" cy="193.208" r="11.533"/>
					<circle fill="#FFFFFF" cx="427.704" cy="241.473" r="11.533"/>
					<circle fill="#FFFFFF" cx="427.704" cy="289.74" r="11.533"/>
					<circle fill="#FFFFFF" cx="427.704" cy="338.005" r="11.533"/>
					<circle fill="#FFFFFF" cx="473.883" cy="193.208" r="11.533"/>
					<circle fill="#FFFFFF" cx="473.883" cy="241.473" r="11.533"/>
					<circle fill="#FFFFFF" cx="473.883" cy="289.74" r="11.533"/>
					<circle fill="#FFFFFF" cx="473.883" cy="338.005" r="11.533"/>
				</g>
			</g>
			<g>
				<path fill="#56BA22" d="M671.217,170.259c0-16.143-13.087-29.23-29.23-29.23c-7.569,0-13.706-6.136-13.706-13.707h-31.584
					c0,7.571-6.138,13.707-13.708,13.707c-16.145,0-29.23,13.087-29.23,29.23c0,0.682,0.056,1.349,0.102,2.019
					c-0.066,0.664-0.102,1.336-0.102,2.018v165.711c0,11.042,8.952,19.993,19.993,19.993h77.473
					c11.041,0,19.993-8.951,19.993-19.993V174.296c0-0.682-0.036-1.354-0.102-2.018
					C671.162,171.609,671.217,170.941,671.217,170.259z"/>
				<path fill="#127045" d="M637.592,119.784c0,4.166-3.373,7.539-7.536,7.539H594.92c-4.162,0-7.536-3.372-7.536-7.539v-16.78
					c0-4.165,3.373-7.539,7.536-7.539h35.136c4.162,0,7.536,3.373,7.536,7.539V119.784z"/>
				<path fill="#FFFFFD" d="M612.487,178.967c-25.552,0-46.26,20.713-46.26,46.261c0,25.549,20.708,46.261,46.26,46.261
					c25.55,0,46.263-20.711,46.263-46.261C658.75,199.68,638.037,178.967,612.487,178.967z"/>
				<polygon fill="#D13D3D" points="639.767,212.816 624.897,212.816 624.897,197.947 600.079,197.947 600.079,212.816 
					585.208,212.816 585.208,237.64 600.079,237.64 600.079,252.507 624.897,252.507 624.897,237.64 639.767,237.64 				"/>
			</g>
			<path fill="#D0EB51" d="M397.636,281.614c0,10.408-8.438,18.845-18.845,18.845h-73.81c-10.407,0-18.845-8.437-18.845-18.845
				V169.88c0-10.408,8.438-18.845,18.845-18.845h73.81c10.407,0,18.845,8.437,18.845,18.845V281.614z"/>
			<g>
				<path fill="#6B3429" d="M304.841,214.728c0,6.998,5.673,12.671,12.671,12.671c6.998,0,12.671-5.673,12.671-12.671v-18.403
					h-25.342V214.728z"/>
				<path fill="#D13D3D" d="M304.841,177.921v18.404h25.342v-18.404c0-6.998-5.673-12.671-12.671-12.671
					C310.514,165.25,304.841,170.924,304.841,177.921z"/>
			</g>
			<g>
				<path fill="#6B3429" d="M353.27,214.728c0,6.998,5.673,12.671,12.671,12.671c6.998,0,12.671-5.673,12.671-12.671v-18.403H353.27
					V214.728z"/>
				<path fill="#D13D3D" d="M353.27,177.921v18.404h25.342v-18.404c0-6.998-5.673-12.671-12.671-12.671
					C358.943,165.25,353.27,170.924,353.27,177.921z"/>
			</g>
			<g>
				<path fill="#FFFFFF" d="M408.444,352.732c0,4.014-3.254,7.268-7.268,7.268H275.98c-4.014,0-7.268-3.254-7.268-7.268V221.146
					c0-4.014,3.254-7.268,7.268-7.268h125.195c4.014,0,7.268,3.254,7.268,7.268V352.732z"/>
				<rect x="268.712" y="247.9" fill="#94CE28" width="139.732" height="77.111"/>
				<path fill="#127045" d="M397.333,275.092c0,3.962-3.212,7.174-7.174,7.174h-96.548c-3.962,0-7.174-3.212-7.174-7.174l0,0
					c0-3.962,3.212-7.174,7.174-7.174h96.548C394.121,267.919,397.333,271.13,397.333,275.092L397.333,275.092z"/>
				<path fill="#56BA22" d="M397.333,301.415c0,3.962-3.212,7.174-7.174,7.174h-96.548c-3.962,0-7.174-3.212-7.174-7.174l0,0
					c0-3.962,3.212-7.174,7.174-7.174h96.548C394.121,294.242,397.333,297.453,397.333,301.415L397.333,301.415z"/>
			</g>
			<g>
				<path fill="#1B9B05" d="M556.555,276.707c0-3.848-3.119-6.967-6.967-6.967H441.264c-3.848,0-6.967,3.119-6.967,6.967v76.326
					c0,3.848,3.119,6.967,6.967,6.967h108.324c3.848,0,6.967-3.119,6.967-6.967V276.707z"/>
				<path fill="#127045" d="M556.555,249.856c0-3.848-3.119-6.967-6.967-6.967H441.264c-3.848,0-6.967,3.119-6.967,6.967v12.917
					c0,3.848,3.119,6.967,6.967,6.967h108.324c3.848,0,6.967-3.119,6.967-6.967V249.856z"/>
			</g>
		</g>
	</g>
</g>
</svg>
